<?xml version="1.0" encoding="utf-8"?>
<!-- Generator: Adobe Illustrator 22.1.0, SVG Export Plug-In . SVG Version: 6.00 Build 0)  -->
<svg version="1.1" id="Layer_1" xmlns="http://www.w3.org/2000/svg" xmlns:xlink="http://www.w3.org/1999/xlink" x="0px" y="0px"
	 viewBox="0 0 24 24" style="enable-background:new 0 0 24 24;" xml:space="preserve">
<style type="text/css">
	.st0{opacity:0;fill:#FF00FF;}
	.st1{fill:#F50000;}
</style>
<title>ic_error_24</title>
<rect id="basic_1_" class="st0" width="24" height="24"/>
<path class="st1" d="M20,8.6L15.3,4H8.6L4,8.7v6.6L8.7,20h6.6l4.7-4.8V8.6z M15.9,15.7c-0.4,0.4-1.1,0.4-1.5,0l-2.2-2.2l-2.2,2.2
	c-0.4,0.4-1.1,0.4-1.5,0c-0.4-0.4-0.4-1-0.1-1.4c0,0,0,0,0.1-0.1l2.1-2.2L8.6,9.9c-0.4-0.3-0.5-1-0.2-1.4C8.7,8.2,9,8.1,9.4,8.1
	c0.3,0,0.5,0.1,0.7,0.3l2.2,2.2l2.1-2.2c0.2-0.2,0.5-0.3,0.7-0.3c0.6,0,1,0.4,1,0.9c0,0,0,0.1,0,0.1c0,0.3-0.1,0.5-0.3,0.7L13.7,12
	l2.1,2.2c0.2,0.2,0.3,0.5,0.3,0.7C16.2,15.2,16.1,15.5,15.9,15.7L15.9,15.7z"/>
</svg>
