<?xml version="1.0" encoding="utf-8"?>
<!-- Generator: Adobe Illustrator 22.1.0, SVG Export Plug-In . SVG Version: 6.00 Build 0)  -->
<svg version="1.1" id="Layer_1" xmlns="http://www.w3.org/2000/svg" xmlns:xlink="http://www.w3.org/1999/xlink" x="0px" y="0px"
	 viewBox="0 0 24 24" style="enable-background:new 0 0 24 24;" xml:space="preserve">
<style type="text/css">
	.st0{opacity:0;fill:#FF00FF;}
	.st1{fill:#3CAADC;}
</style>
<title>ic_info_24</title>
<rect id="basic_1_" class="st0" width="24" height="24"/>
<path class="st1" d="M12,4c-4.4,0-8,3.6-8,8.1s3.6,8,8.1,8s8-3.6,8-8.1c0,0,0,0,0,0C20,7.6,16.4,4,12,4z M12.1,6.7
	c0.8,0,1.4,0.6,1.4,1.4c0,0.8-0.6,1.4-1.4,1.4S10.7,8.8,10.7,8c0,0,0,0,0,0C10.7,7.2,11.3,6.6,12.1,6.7C12.1,6.6,12.1,6.6,12.1,6.7
	L12.1,6.7z M14.6,16.1c-0.1,0.6-0.6,1.1-1.2,1h-2.6c-0.6,0.1-1.2-0.4-1.2-1V16c0.1-0.6,0.6-1.1,1.2-1H11v-3.5h-0.6
	c-0.4,0-0.8-0.3-0.9-0.8c0-0.4,0.4-0.8,0.9-0.8h1.7c0.1,0,0.3,0,0.4,0.1c0.1,0,0.2,0.1,0.2,0.1l0,0c0.3,0.2,0.4,0.5,0.4,0.8V15h0.2
	c0.6-0.1,1.1,0.4,1.2,1c0,0,0,0,0,0L14.6,16.1z"/>
</svg>
