<?xml version="1.0" encoding="utf-8"?>
<svg version="1.1" id="ic_sys-warning_24" xmlns="http://www.w3.org/2000/svg" xmlns:xlink="http://www.w3.org/1999/xlink" x="0px" y="0px"
	 viewBox="0 0 24 24" style="enable-background:new 0 0 24 24;" xml:space="preserve">
<style type="text/css">
	.st0{opacity:0;fill:#fff;}
	.st1{fill:#fff;}
</style>
<path id="Icon" class="st1" d="M5,17h5.8c-0.8-0.3-1.4-1-1.5-1.9H5.5c-0.3,0-0.6-0.3-0.6-0.6l0,0v-9c0-0.3,0.3-0.6,0.6-0.6l0,0h13
	c0.3,0,0.6,0.3,0.6,0.6v9c0,0.3-0.3,0.6-0.6,0.6h-3.8C14.6,16,14,16.7,13.2,17H19c1.1,0,2-0.9,2-2V5c0-1.1-0.9-2-2-2H5
	C3.9,3,3,3.9,3,5v10C3,16.1,3.9,17,5,17z M12.8,8c-0.4-0.4-1.1-0.4-1.5,0c0,0,0,0,0,0C11.1,8.2,11,8.4,11,8.7l0.2,3.3
	c0,0.3,0.2,0.5,0.5,0.4h0.7c0.3,0,0.5-0.2,0.5-0.4L13,8.7C13,8.4,12.9,8.2,12.8,8z M21,18H3c-0.6,0-1,0.4-1,1s0.4,1,1,1h18
	c0.6,0,1-0.4,1-1S21.6,18,21,18z M12,14c-0.6,0-1,0.4-1,1s0.4,1,1,1s1-0.4,1-1S12.6,14,12,14z" />
</svg>
