<?xml version="1.0" encoding="utf-8"?>
<!-- Generator: Adobe Illustrator 22.1.0, SVG Export Plug-In . SVG Version: 6.00 Build 0)  -->
<svg version="1.1" id="Layer_1" xmlns="http://www.w3.org/2000/svg" xmlns:xlink="http://www.w3.org/1999/xlink" x="0px" y="0px"
	 viewBox="0 0 24 24" style="enable-background:new 0 0 24 24;" xml:space="preserve">
<style type="text/css">
	.st0{opacity:0;}
	.st1{fill:#FF00FF;}
	.st2{fill:#FF9000;}
</style>
<title>ic_warning_24</title>
<g id="basic" class="st0">
	<rect class="st1" width="24" height="24"/>
</g>
<path class="st2" d="M21.8,18.5c-0.4-0.6-8.3-13-9-14c-0.3-0.5-0.9-0.6-1.4-0.3c-0.1,0.1-0.2,0.2-0.3,0.3c-0.4,0.6-8.4,13.1-9,14.1
	c-0.2,0.3-0.2,0.6,0,0.8c0.2,0.3,0.5,0.5,0.9,0.5h18c0.4,0,0.7-0.2,0.9-0.5C22.1,19.1,22,18.8,21.8,18.5z M13.3,17.1
	c0,0.5-0.4,0.9-0.9,1h-0.9c-0.5-0.1-0.9-0.5-0.9-1v-0.6c0-0.5,0.4-0.9,0.9-1h0.9c0.5,0.1,0.9,0.5,0.9,1V17.1z M13.1,14.1
	c0,0.4-0.4,0.8-0.8,0.8h-0.7c-0.4,0-0.8-0.3-0.8-0.8l-0.2-4c0-0.4,0.1-0.8,0.4-1.1c0.3-0.3,0.6-0.4,1-0.4c0.4,0,0.7,0.1,1,0.4
	c0.3,0.3,0.4,0.6,0.4,1L13.1,14.1z"/>
</svg>
