<svg width="24" height="24" viewBox="0 0 24 24" fill="none" xmlns="http://www.w3.org/2000/svg">
<path fill-rule="evenodd" clip-rule="evenodd" d="M10.6309 4.76556C11.2534 3.73631 12.7465 3.73631 13.369 4.76556L21.1218 17.5833C21.7667 18.6497 20.9989 20.0114 19.7527 20.0114H4.2472C3.00099 20.0114 2.23318 18.6497 2.87815 17.5833L10.6309 4.76556ZM12.3422 5.38661C12.1866 5.12929 11.8133 5.12929 11.6577 5.38661L3.90494 18.2044C3.7437 18.471 3.93565 18.8114 4.2472 18.8114H19.7527C20.0642 18.8114 20.2562 18.471 20.095 18.2044L12.3422 5.38661ZM13 13V10.3515C13 9.79924 12.5523 9.35153 12 9.35153C11.4477 9.35153 11 9.79924 11 10.3515V13C11 13.5523 11.4477 14 12 14C12.5523 14 13 13.5523 13 13ZM12 17C12.5523 17 13 16.5523 13 16C13 15.4477 12.5523 15 12 15C11.4477 15 11 15.4477 11 16C11 16.5523 11.4477 17 12 17Z" fill="#BAC5CF"/>
</svg>
